<?xml version="1.0" encoding="UTF-8"?>
<svg xmlns="http://www.w3.org/2000/svg" version="1.2" viewBox="0 0 3500 1509" width="197" height="85">
  <style> 
    .s0 { fill: #e8a800 } 
    .s1 { fill: none;stroke: #e8a800;stroke-miterlimit:10;stroke-width: 6 } 
    .s2 { fill: #ffffff } 
  </style>
  <g id="Layer_1_kopi">
    <g>
      <path class="s0" d="m2058.84 773.21c-51.15-5.38-82.31-8.86-143.86-10.09 11.14-3.63 21.77-8.42 31.44-14.56 24.92-11.3 48.2-29.14 62.43-53.45 56.58-99.84-6.44-196.43-95.77-223.58 2.01-3.41 8.87-6.8 8.87-6.8-6.74-0.23-17.57 4.02-18.87 4.54-38.14-9.21-80.17-6.26-119.5 14.57-1.44 0.78-2.64 1.77-4.04 2.59-0.69-3.94 1.67-10.71 1.67-10.71-4.63 4.29-8.98 13.74-9.99 16.04-84.57 57.07-85.4 184.33-6.53 243.65-1.41 1.53-9.33 2.33-9.33 2.33 5.26 1.96 10.37 0.87 12.69 0.18 7.86 5.56 16.18 10.7 25.53 14.8 8.75 4.41 17.69 7.67 26.67 10.43-60.87 1.25-91.41 4.74-142.08 10.07h380.68q0 0-0.01-0.01zm-270.9-281.21c92.68-51.67 233.12 11.01 232.36 123.63 0.77 36.61-13.28 72.24-38.45 97.58 22.37-30.61 31.27-71.56 16.71-118.12-31.21-106.63-187.22-123.65-240.76-33.78-3.05-0.78-5.61-8.57-5.61-8.57-0.86 4.99 0.92 13.05 1.46 15.33-3.5 6.92-6.5 14.32-8.77 22.38-13.09 56.38 23.8 113.96 74.65 135.53 49.8 22.69 122.75 4.1 143.05-50.26 7.62-18.58 8.38-37.72 4.57-55.72 3.97 0.39 9.9 4.68 9.9 4.68-2.58-5.3-9.57-11.68-12.08-13.88-15.68-50.71-69.45-48.56-120.56-70.03-0.66-3.95 1.69-10.67 1.69-10.67-0.69 0.64-1.35 1.63-2.03 2.48 0-0.01 0.04-0.13 0.04-0.13-0.26 0.26-0.5 0.69-0.75 1.01-0.5 0.68-1 1.24-1.47 1.97-0.35 0.54-0.65 1.06-0.97 1.63-1.53 2.53-2.82 4.93-3.74 6.83-6.63 3.14-13.22 6.9-19.6 12.14-22.85 17.22-33.39 48.89-26.44 76.37 6.2 40.32 43.33 67.48 79.73 66.25-0.24 3.85-6.17 9.65-6.17 9.65 6.64-1.78 16.36-9.97 16.36-9.97 0 0-0.65-0.24-1.08-0.41 14.83-2.56 29.12-9.76 40.59-23.78 39.67-56.54-45.05-132.97-87.12-68.97-12.69 27.14 4.4 64.63 36.39 67.38 14.77 0.71 32.04-9.55 32.71-26.91 0.42-15.18-18.6-31.33-31.41-20.37 13.4-3.48 23.43 10.31 23.13 20.15-0.37 10.95-12.63 19.29-24.17 18.66-24.04-1.06-39.74-33.97-29.06-55.09 10.83-22.22 45.61-24.98 62.82-7.65 45.6 45.49-2.03 105.09-58.39 86.18-48.26-17.45-66.29-92.62-22.45-124.76 108.71-79.55 203.86 120.57 75.66 158.16-76.34 28.81-163.7-50.29-145.18-128.4 12.46-51.06 67.38-83.38 118.83-81.33 116.43-0.63 169.21 157.79 75.09 225.89-171.03 98.42-331.89-134.23-159.51-245.08z"/>
      <path class="s1" d="m2058.84 773.21c-51.15-5.38-82.31-8.86-143.86-10.09 11.14-3.63 21.77-8.42 31.44-14.56 24.92-11.3 48.2-29.14 62.43-53.45 56.58-99.84-6.44-196.43-95.77-223.58 2.01-3.41 8.87-6.8 8.87-6.8-6.74-0.23-17.57 4.02-18.87 4.54-38.14-9.21-80.17-6.26-119.5 14.57-1.44 0.78-2.64 1.77-4.04 2.59-0.69-3.94 1.67-10.71 1.67-10.71-4.63 4.29-8.98 13.74-9.99 16.04-84.57 57.07-85.4 184.33-6.53 243.65-1.41 1.53-9.33 2.33-9.33 2.33 5.26 1.96 10.37 0.87 12.69 0.18 7.86 5.56 16.18 10.7 25.53 14.8 8.75 4.41 17.69 7.67 26.67 10.43-60.87 1.25-91.41 4.74-142.08 10.07h380.68q0 0-0.01-0.01zm-270.9-281.21c92.68-51.67 233.12 11.01 232.36 123.63 0.77 36.61-13.28 72.24-38.45 97.58 22.37-30.61 31.27-71.56 16.71-118.12-31.21-106.63-187.22-123.65-240.76-33.78-3.05-0.78-5.61-8.57-5.61-8.57-0.86 4.99 0.92 13.05 1.46 15.33-3.5 6.92-6.5 14.32-8.77 22.38-13.09 56.38 23.8 113.96 74.65 135.53 49.8 22.69 122.75 4.1 143.05-50.26 7.62-18.58 8.38-37.72 4.57-55.72 3.97 0.39 9.9 4.68 9.9 4.68-2.58-5.3-9.57-11.68-12.08-13.88-15.68-50.71-69.45-48.56-120.56-70.03-0.66-3.95 1.69-10.67 1.69-10.67-0.69 0.64-1.35 1.63-2.03 2.48 0-0.01 0.04-0.13 0.04-0.13-0.26 0.26-0.5 0.69-0.75 1.01-0.5 0.68-1 1.24-1.47 1.97-0.35 0.54-0.65 1.06-0.97 1.63-1.53 2.53-2.82 4.93-3.74 6.83-6.63 3.14-13.22 6.9-19.6 12.14-22.85 17.22-33.39 48.89-26.44 76.37 6.2 40.32 43.33 67.48 79.73 66.25-0.24 3.85-6.17 9.65-6.17 9.65 6.64-1.78 16.36-9.97 16.36-9.97 0 0-0.65-0.24-1.08-0.41 14.83-2.56 29.12-9.76 40.59-23.78 39.67-56.54-45.05-132.97-87.12-68.97-12.69 27.14 4.4 64.63 36.39 67.38 14.77 0.71 32.04-9.55 32.71-26.91 0.42-15.18-18.6-31.33-31.41-20.37 13.4-3.48 23.43 10.31 23.13 20.15-0.37 10.95-12.63 19.29-24.17 18.66-24.04-1.06-39.74-33.97-29.06-55.09 10.83-22.22 45.61-24.98 62.82-7.65 45.6 45.49-2.03 105.09-58.39 86.18-48.26-17.45-66.29-92.62-22.45-124.76 108.71-79.55 203.86 120.57 75.66 158.16-76.34 28.81-163.7-50.29-145.18-128.4 12.46-51.06 67.38-83.38 118.83-81.33 116.43-0.63 169.21 157.79 75.09 225.89-171.03 98.42-331.89-134.23-159.51-245.08z"/>
    </g>
    <g>
      <path class="s2" d="m315.56 267.43v164.65h288.36v115.7h-288.36v226.95h-144.18v-623h470.81v115.7z"/>
      <path class="s2" d="m1302.57 641.23h-289.25l-55.18 133.5h-147.74l277.68-623h142.4l278.57 623h-151.3zm-45.39-109.47l-98.79-238.52-98.79 238.52z"/>
      <path class="s2" d="m3205.96 774.73l-0.89-373.8-183.34 307.94h-64.97l-182.45-299.93v365.79h-135.28v-623h119.26l233.18 387.15 229.62-387.15h118.37l1.78 623z"/>
    </g>
    <g>
      <path class="s2" d="m1045.12 1042.18v88h115.84v20.48h-115.84v95.04h-23.68v-224h153.6v20.48z"/>
      <path class="s2" d="m1256 1021.7h23.68v224h-23.68z"/>
      <path class="s2" d="m1428.16 1042.18h-78.72v-20.48h181.12v20.48h-78.72v203.52h-23.68z"/>
      <path class="s2" d="m1787.52 1021.7v224h-19.52l-144-181.76v181.76h-23.68v-224h19.52l144.32 181.76v-181.76z"/>
      <path class="s2" d="m2050.87 1225.23v20.48h-158.4v-224h153.6v20.48h-129.92v79.68h115.84v20.16h-115.84v83.2z"/>
      <path class="s2" d="m2117.11 1218.51l9.28-18.24c16 15.68 44.48 27.2 73.92 27.2 41.92 0 60.16-17.6 60.16-39.68 0-61.44-137.92-23.68-137.92-106.56 0-32.96 25.6-61.44 82.56-61.44 25.28 0 51.52 7.36 69.44 19.84l-8 18.88c-19.2-12.48-41.6-18.56-61.44-18.56-40.96 0-59.2 18.24-59.2 40.64 0 61.44 137.92 24.32 137.92 105.92 0 32.96-26.24 61.12-83.52 61.12-33.6 0-66.56-11.84-83.2-29.12z"/>
      <path class="s2" d="m2345.9 1218.51l9.28-18.24c16 15.68 44.48 27.2 73.92 27.2 41.92 0 60.16-17.6 60.16-39.68 0-61.44-137.92-23.68-137.92-106.56 0-32.96 25.6-61.44 82.56-61.44 25.28 0 51.52 7.36 69.44 19.84l-8 18.88c-19.2-12.48-41.6-18.56-61.44-18.56-40.96 0-59.2 18.24-59.2 40.64 0 61.44 137.92 24.32 137.92 105.92 0 32.96-26.24 61.12-83.52 61.12-33.6 0-66.56-11.84-83.2-29.12z"/>
    </g>
    <path class="s2" d="m1886.76 269.21l-79.67-117.48h297.78c166.43 0 270.56 86.33 270.56 226.06 0 93.45-47.17 161.98-128.16 196.69l139.73 200.25h-154.86l-120.15-173.55-77.96-114.81h62.83c88.11 0 132.61-40.94 132.61-108.58 0-67.64-44.5-108.58-132.61-108.58z"/>
  </g>
</svg>
